<?xml version="1.0" encoding="utf-8"?>
<!-- Generator: Adobe Illustrator 16.0.0, SVG Export Plug-In . SVG Version: 6.00 Build 0)  -->
<!DOCTYPE svg PUBLIC "-//W3C//DTD SVG 1.1//EN" "http://www.w3.org/Graphics/SVG/1.1/DTD/svg11.dtd">
<svg version="1.1" id="Layer_1" xmlns="http://www.w3.org/2000/svg" xmlns:xlink="http://www.w3.org/1999/xlink" x="0px" y="0px"
	 viewBox="0 0 426 228" xml:space="preserve">
<g>
	<g>
		<g>
			<path fill="#282727" d="M12.383,106.421c-0.638,1.7-1.275,2.125-3.083,2.125H2.924c-1.276,0-2.232-0.957-2.232-2.232V50.408
				c0-1.275,0.851-2.232,2.232-2.232H13.34c1.275,0,2.232,0.957,2.232,2.232v17.963c3.508-2.87,8.503-2.87,10.097-2.87
				c9.672,0,18.601,9.672,18.601,21.576c0,11.797-8.503,22.001-19.77,22.001c-3.72,0-8.078-0.531-11.585-4.889L12.383,106.421z
				 M29.389,87.183c0-4.676-3.188-7.652-6.802-7.652c-3.933,0-7.015,2.976-7.015,7.652c0,5.314,3.082,8.928,7.121,8.928
				C26.307,96.111,29.389,92.391,29.389,87.183z"/>
		</g>
		<g>
			<path fill="#282727" d="M85.377,108.547c-1.807,0-2.445-0.425-3.082-2.125l-0.532-2.232c-2.763,4.039-7.652,4.889-11.16,4.889
				c-12.223,0-17.644-9.141-17.644-19.238V68.264c0-1.275,0.851-2.232,2.232-2.232h10.417c1.275,0,2.232,0.957,2.232,2.232v21.151
				c0,3.614,0.319,6.696,5.421,6.696c3.507,0,4.889-3.082,4.889-6.696V68.264c0-1.275,0.851-2.232,2.232-2.232h10.417
				c1.275,0,2.232,0.957,2.232,2.232v38.051c0,1.275-0.957,2.232-2.232,2.232H85.377z"/>
		</g>
		<g>
			<path fill="#282727" d="M125.248,79.424c-5.314,0-6.909,3.188-6.909,6.59v20.301c0,1.275-0.956,2.232-2.232,2.232h-10.416
				c-1.382,0-2.232-0.957-2.232-2.232V68.264c0-1.275,0.85-2.232,2.232-2.232h7.439c1.275,0,2.232,0.957,2.232,2.232v1.807
				c2.657-3.401,6.59-4.358,9.566-4.57h4.039c1.275,0,2.232,0.956,2.232,2.232v9.459c0,1.382-0.957,2.232-2.232,2.232H125.248z"/>
		</g>
		<g>
			<path fill="#282727" d="M159.667,116.625c5.208,0,6.483-2.444,6.483-6.165v-3.188c-3.295,1.807-6.59,1.807-9.035,1.807
				c-11.267,0-19.663-10.204-19.663-22.001c0-11.904,8.609-21.576,20.3-21.576c3.508,0,8.184,0.637,12.329,3.613l0.213-0.957
				c0.638-1.701,1.275-2.125,3.083-2.125h5.42c1.275,0,2.232,0.957,2.232,2.232v40.495c0,15.199-10.735,20.832-20.301,20.832
				c-7.865,0-12.967-1.594-17.75-5.738c-0.531-0.531-0.85-1.17-0.85-1.914c0-0.426,0.106-0.957,0.319-1.381l3.72-6.378
				c0.425-0.425,0.85-0.744,1.594-0.744c0.425,0,1.382,0.106,1.701,0.425C152.759,116.519,157.01,116.625,159.667,116.625z
				 M166.151,87.183c0-4.676-3.295-7.652-7.015-7.652c-3.826,0-6.803,2.976-6.803,7.652c0,5.633,2.977,8.928,6.803,8.928
				C162.962,96.111,166.151,92.922,166.151,87.183z"/>
		</g>
		<g>
			<path fill="#282727" d="M231.067,89.415c0,1.275-0.957,2.232-2.232,2.232H204.92c0.744,4.677,5.633,5.208,8.396,5.208
				c3.401,0,6.377-0.106,10.097-1.807c0.213-0.106,0.319-0.106,0.531-0.106c0.426,0,0.957,0.212,1.382,0.744l2.87,4.783
				c0.318,0.425,0.531,0.957,0.531,1.488c0,0.638-0.213,1.382-0.531,1.807c-2.87,3.933-9.354,5.314-14.88,5.314
				c-11.904,0-23.595-5.952-23.595-22.214c0-11.798,6.164-21.363,20.726-21.363c11.691,0,20.62,6.802,20.62,20.407V89.415z
				 M204.814,83.463h11.373c-0.638-4.358-3.826-4.783-5.527-4.783C208.747,78.68,205.558,78.999,204.814,83.463z"/>
		</g>
		<g>
			<path fill="#282727" d="M261.546,79.424c-5.313,0-6.908,3.188-6.908,6.59v20.301c0,1.275-0.956,2.232-2.232,2.232h-10.416
				c-1.382,0-2.231-0.957-2.231-2.232V68.264c0-1.275,0.85-2.232,2.231-2.232h7.44c1.275,0,2.232,0.957,2.232,2.232v1.807
				c2.657-3.401,6.589-4.358,9.565-4.57h4.039c1.275,0,2.231,0.956,2.231,2.232v9.459c0,1.382-0.956,2.232-2.231,2.232H261.546z"/>
		</g>
		<g>
			<path fill="#282727" d="M292.808,106.315c0,1.275-0.957,2.232-2.232,2.232h-10.416c-1.382,0-2.232-0.957-2.232-2.232V50.408
				c0-1.275,0.851-2.232,2.232-2.232h10.416c1.275,0,2.232,0.957,2.232,2.232V106.315z"/>
		</g>
		<g>
			<path fill="#282727" d="M310.677,44.881c4.57,0,8.29,3.72,8.29,8.291s-3.72,8.291-8.29,8.291s-8.291-3.72-8.291-8.291
				S306.106,44.881,310.677,44.881z M318.117,106.315c0,1.275-0.957,2.232-2.232,2.232h-10.416c-1.382,0-2.232-0.957-2.232-2.232
				V68.264c0-1.275,0.851-2.232,2.232-2.232h10.416c1.275,0,2.232,0.957,2.232,2.232V106.315z"/>
		</g>
		<g>
			<path fill="#282727" d="M318.162,122.896l2.232-6.484c0.319-0.424,0.532-0.744,1.382-0.744c2.764,0.957,3.508,0.957,5.314,0.957
				c2.231,0,2.657-1.062,2.657-6.909V68.264c0-1.275,0.851-2.232,2.231-2.232h10.417c1.275,0,2.231,0.957,2.231,2.232v41.877
				c0,15.731-5.314,19.45-15.73,19.45c-2.232,0-10.947-1.381-10.947-5.527C317.95,123.746,317.95,123.533,318.162,122.896z
				 M337.188,44.881c4.57,0,8.29,3.72,8.29,8.291s-3.72,8.291-8.29,8.291c-4.571,0-8.291-3.72-8.291-8.291
				S332.617,44.881,337.188,44.881z"/>
		</g>
		<g>
			<path fill="#282727" d="M369.379,96.855c1.595,0,3.72-0.212,3.72-1.381c0-3.72-20.301-4.145-20.301-16.475
				c0-9.247,8.291-13.498,18.176-13.498c4.995,0,10.522,1.7,12.755,2.657c0.424,0.213,0.85,0.638,1.274,1.382
				c0,0.319,0,0.85-0.106,1.063l-1.807,7.546c-0.212,0.744-0.531,1.169-2.232,1.169c-0.638,0-4.145-1.169-7.971-1.169
				c-3.933,0-4.996,0.213-4.996,1.595c0,3.295,20.089,5.739,20.089,15.837c0,10.947-9.991,13.498-18.494,13.498
				c-4.995,0-10.522-1.062-15.837-4.464c-0.425-0.319-1.062-0.957-1.062-1.807c0-0.106,0-0.531,2.125-7.44
				c0.426-0.957,1.276-1.381,1.808-1.381c0.318,0,0.531,0,0.956,0.212C358.644,94.942,364.49,96.855,369.379,96.855z"/>
		</g>
		<g>
			<path fill="#282727" d="M416.004,109.078c-9.566,0-15.199-3.933-15.199-18.494v-11.16h-5.421c-1.274,0-2.231-0.85-2.231-2.232
				v-9.459c0-1.276,0.957-2.232,2.231-2.232h5.421V50.408c0-1.275,0.851-2.232,2.232-2.232h10.415c1.276,0,2.232,0.957,2.232,2.232
				v15.093h7.973c1.274,0,2.231,0.956,2.231,2.232v9.459c0,1.382-0.957,2.232-2.231,2.232h-7.973v9.778
				c0,4.145,0.425,6.909,3.401,6.909c1.807,0,0.957-0.106,2.445-0.213c0.318-0.106,0.531-0.106,0.85-0.106
				c0.851,0,1.913,0.744,2.126,1.594l1.275,7.44c0.106,0.213,0.106,0.638,0.106,0.85c0,1.063-1.276,1.914-1.701,2.02
				C421.211,108.866,419.192,109.078,416.004,109.078z"/>
		</g>
	</g>
	<g>
		<path fill="#282727" d="M285.365,226.771c-1.517,0-3.043-0.465-4.361-1.41c-2.001-1.436-3.078-3.84-3.078-6.303v-46.002
			c0-0.783-0.635-1.418-1.418-1.418H2.818c-1.174,0-2.126-0.951-2.126-2.125v-10.631c0-1.174,0.952-2.127,2.126-2.127h282.548
			c4.109,0,7.441,3.332,7.441,7.441v38.695c0,0.588,0.671,0.92,1.138,0.564l59.407-45.182c1.295-0.984,2.877-1.52,4.505-1.52h65.905
			c1.174,0,2.126,0.953,2.126,2.127v10.631c0,1.174-0.952,2.125-2.126,2.125h-61.486c-1.24,0-2.445,0.406-3.433,1.156
			l-68.973,52.459C288.551,226.257,286.964,226.771,285.365,226.771z"/>
	</g>
	<g>
		<path fill="#282727" d="M423.763,14.883H2.817c-1.174,0-2.126-0.952-2.126-2.126V2.126C0.691,0.952,1.643,0,2.817,0h420.945
			c1.174,0,2.126,0.952,2.126,2.126v10.631C425.889,13.931,424.937,14.883,423.763,14.883z"/>
	</g>
</g>
</svg>
