<?xml version="1.0" encoding="utf-8"?>
<!-- Generator: Adobe Illustrator 21.1.0, SVG Export Plug-In . SVG Version: 6.00 Build 0)  -->
<svg version="1.1" id="Layer_1" xmlns="http://www.w3.org/2000/svg" xmlns:xlink="http://www.w3.org/1999/xlink" x="0px" y="0px"
	 viewBox="0 0 538.6 340.2" style="enable-background:new 0 0 538.6 340.2;" xml:space="preserve">
<style type="text/css">
	.st0{fill:#2C2C2B;}
</style>
<g>
	<g>
		<g>
			<path class="st0" d="M68.4,163.1c-0.6,1.7-1.3,2.1-3.1,2.1h-6.4c-1.3,0-2.2-1-2.2-2.2v-55.9c0-1.3,0.9-2.2,2.2-2.2h10.4
				c1.3,0,2.2,1,2.2,2.2v18c3.5-2.9,8.5-2.9,10.1-2.9c9.7,0,18.6,9.7,18.6,21.6c0,11.8-8.5,22-19.8,22c-3.7,0-8.1-0.5-11.6-4.9
				L68.4,163.1z M85.4,143.9c0-4.7-3.2-7.7-6.8-7.7c-3.9,0-7,3-7,7.7c0,5.3,3.1,8.9,7.1,8.9C82.3,152.8,85.4,149.1,85.4,143.9z"/>
		</g>
		<g>
			<path class="st0" d="M141.4,165.2c-1.8,0-2.4-0.4-3.1-2.1l-0.5-2.2c-2.8,4-7.7,4.9-11.2,4.9c-12.2,0-17.6-9.1-17.6-19.2V125
				c0-1.3,0.9-2.2,2.2-2.2h10.4c1.3,0,2.2,1,2.2,2.2v21.2c0,3.6,0.3,6.7,5.4,6.7c3.5,0,4.9-3.1,4.9-6.7V125c0-1.3,0.9-2.2,2.2-2.2
				h10.4c1.3,0,2.2,1,2.2,2.2V163c0,1.3-1,2.2-2.2,2.2H141.4z"/>
		</g>
		<g>
			<path class="st0" d="M181.2,136.1c-5.3,0-6.9,3.2-6.9,6.6V163c0,1.3-1,2.2-2.2,2.2h-10.4c-1.4,0-2.2-1-2.2-2.2V125
				c0-1.3,0.9-2.2,2.2-2.2h7.4c1.3,0,2.2,1,2.2,2.2v1.8c2.7-3.4,6.6-4.4,9.6-4.6h4c1.3,0,2.2,1,2.2,2.2v9.5c0,1.4-1,2.2-2.2,2.2
				H181.2z"/>
		</g>
		<g>
			<path class="st0" d="M215.7,173.3c5.2,0,6.5-2.4,6.5-6.2V164c-3.3,1.8-6.6,1.8-9,1.8c-11.3,0-19.7-10.2-19.7-22
				c0-11.9,8.6-21.6,20.3-21.6c3.5,0,8.2,0.6,12.3,3.6l0.2-1c0.6-1.7,1.3-2.1,3.1-2.1h5.4c1.3,0,2.2,1,2.2,2.2v40.5
				c0,15.2-10.7,20.8-20.3,20.8c-7.9,0-13-1.6-17.8-5.7c-0.5-0.5-0.9-1.2-0.9-1.9c0-0.4,0.1-1,0.3-1.4l3.7-6.4
				c0.4-0.4,0.9-0.7,1.6-0.7c0.4,0,1.4,0.1,1.7,0.4C208.8,173.2,213,173.3,215.7,173.3z M222.2,143.9c0-4.7-3.3-7.7-7-7.7
				c-3.8,0-6.8,3-6.8,7.7c0,5.6,3,8.9,6.8,8.9C219,152.8,222.2,149.6,222.2,143.9z"/>
		</g>
		<g>
			<path class="st0" d="M287.1,146.1c0,1.3-1,2.2-2.2,2.2h-23.9c0.7,4.7,5.6,5.2,8.4,5.2c3.4,0,6.4-0.1,10.1-1.8
				c0.2-0.1,0.3-0.1,0.5-0.1c0.4,0,1,0.2,1.4,0.7l2.9,4.8c0.3,0.4,0.5,1,0.5,1.5c0,0.6-0.2,1.4-0.5,1.8c-2.9,3.9-9.4,5.3-14.9,5.3
				c-11.9,0-23.6-6-23.6-22.2c0-11.8,6.2-21.4,20.7-21.4c11.7,0,20.6,6.8,20.6,20.4V146.1z M260.8,140.2h11.4
				c-0.6-4.4-3.8-4.8-5.5-4.8C264.7,135.4,261.6,135.7,260.8,140.2z"/>
		</g>
		<g>
			<path class="st0" d="M317.5,136.1c-5.3,0-6.9,3.2-6.9,6.6V163c0,1.3-1,2.2-2.2,2.2H298c-1.4,0-2.2-1-2.2-2.2V125
				c0-1.3,0.9-2.2,2.2-2.2h7.4c1.3,0,2.2,1,2.2,2.2v1.8c2.7-3.4,6.6-4.4,9.6-4.6h4c1.3,0,2.2,1,2.2,2.2v9.5c0,1.4-1,2.2-2.2,2.2
				H317.5z"/>
		</g>
		<g>
			<path class="st0" d="M348.8,163c0,1.3-1,2.2-2.2,2.2h-10.4c-1.4,0-2.2-1-2.2-2.2v-55.9c0-1.3,0.9-2.2,2.2-2.2h10.4
				c1.3,0,2.2,1,2.2,2.2V163z"/>
		</g>
		<g>
			<path class="st0" d="M366.7,101.6c4.6,0,8.3,3.7,8.3,8.3c0,4.6-3.7,8.3-8.3,8.3s-8.3-3.7-8.3-8.3
				C358.4,105.3,362.1,101.6,366.7,101.6z M374.1,163c0,1.3-1,2.2-2.2,2.2h-10.4c-1.4,0-2.2-1-2.2-2.2V125c0-1.3,0.9-2.2,2.2-2.2
				h10.4c1.3,0,2.2,1,2.2,2.2V163z"/>
		</g>
		<g>
			<path class="st0" d="M374.2,179.6l2.2-6.5c0.3-0.4,0.5-0.7,1.4-0.7c2.8,1,3.5,1,5.3,1c2.2,0,2.7-1.1,2.7-6.9V125
				c0-1.3,0.9-2.2,2.2-2.2h10.4c1.3,0,2.2,1,2.2,2.2v41.9c0,15.7-5.3,19.5-15.7,19.5c-2.2,0-10.9-1.4-10.9-5.5
				C374,180.4,374,180.2,374.2,179.6z M393.2,101.6c4.6,0,8.3,3.7,8.3,8.3c0,4.6-3.7,8.3-8.3,8.3c-4.6,0-8.3-3.7-8.3-8.3
				C384.9,105.3,388.6,101.6,393.2,101.6z"/>
		</g>
		<g>
			<path class="st0" d="M425.4,153.5c1.6,0,3.7-0.2,3.7-1.4c0-3.7-20.3-4.1-20.3-16.5c0-9.2,8.3-13.5,18.2-13.5
				c5,0,10.5,1.7,12.8,2.7c0.4,0.2,0.9,0.6,1.3,1.4c0,0.3,0,0.9-0.1,1.1l-1.8,7.5c-0.2,0.7-0.5,1.2-2.2,1.2c-0.6,0-4.1-1.2-8-1.2
				c-3.9,0-5,0.2-5,1.6c0,3.3,20.1,5.7,20.1,15.8c0,10.9-10,13.5-18.5,13.5c-5,0-10.5-1.1-15.8-4.5c-0.4-0.3-1.1-1-1.1-1.8
				c0-0.1,0-0.5,2.1-7.4c0.4-1,1.3-1.4,1.8-1.4c0.3,0,0.5,0,1,0.2C414.6,151.6,420.5,153.5,425.4,153.5z"/>
		</g>
		<g>
			<path class="st0" d="M472,165.8c-9.6,0-15.2-3.9-15.2-18.5v-11.2h-5.4c-1.3,0-2.2-0.9-2.2-2.2v-9.5c0-1.3,1-2.2,2.2-2.2h5.4
				v-15.1c0-1.3,0.9-2.2,2.2-2.2h10.4c1.3,0,2.2,1,2.2,2.2v15.1h8c1.3,0,2.2,1,2.2,2.2v9.5c0,1.4-1,2.2-2.2,2.2h-8v9.8
				c0,4.1,0.4,6.9,3.4,6.9c1.8,0,1-0.1,2.4-0.2c0.3-0.1,0.5-0.1,0.9-0.1c0.9,0,1.9,0.7,2.1,1.6l1.3,7.4c0.1,0.2,0.1,0.6,0.1,0.9
				c0,1.1-1.3,1.9-1.7,2C477.2,165.6,475.2,165.8,472,165.8z"/>
		</g>
	</g>
	<g>
		<path class="st0" d="M341.4,283.5c-1.5,0-3-0.5-4.4-1.4c-2-1.4-3.1-3.8-3.1-6.3l0-46c0-0.8-0.6-1.4-1.4-1.4H58.8
			c-1.2,0-2.1-1-2.1-2.1v-10.6c0-1.2,1-2.1,2.1-2.1h282.5c4.1,0,7.4,3.3,7.4,7.4v38.7c0,0.6,0.7,0.9,1.1,0.6l59.4-45.2
			c1.3-1,2.9-1.5,4.5-1.5h65.9c1.2,0,2.1,1,2.1,2.1v10.6c0,1.2-1,2.1-2.1,2.1h-61.5c-1.2,0-2.4,0.4-3.4,1.2l-69,52.5
			C344.6,283,343,283.5,341.4,283.5z"/>
	</g>
	<g>
		<path class="st0" d="M479.8,71.6H58.8c-1.2,0-2.1-1-2.1-2.1V58.8c0-1.2,1-2.1,2.1-2.1h420.9c1.2,0,2.1,1,2.1,2.1v10.6
			C481.9,70.6,480.9,71.6,479.8,71.6z"/>
	</g>
</g>
</svg>
